<svg width="1118" height="29" viewBox="0 0 1118 29" fill="none" xmlns="http://www.w3.org/2000/svg">
<path d="M34.3316 4.32643C34.3316 5.1485 34.1024 5.8069 33.6509 6.29793C33.1317 6.88002 32.4556 7.17292 31.627 7.17292C30.8351 7.17292 30.1589 6.8751 29.6043 6.28808C29.0485 5.69245 28.7711 4.96145 28.7711 4.08646C28.7711 3.21147 29.0485 2.48047 29.6043 1.88976C30.1589 1.29782 30.8351 1 31.627 1C32.0212 1 32.3971 1.08738 32.7558 1.24982C33.1134 1.4135 33.4045 1.63501 33.6153 1.90822L33.1363 2.42755C32.7684 1.96113 32.2676 1.731 31.627 1.731C31.0494 1.731 30.5486 1.9476 30.1234 2.38448C29.7028 2.82259 29.492 3.38991 29.492 4.08646C29.492 4.783 29.7028 5.35525 30.1234 5.79336C30.5486 6.22532 31.0494 6.44684 31.627 6.44684C32.2401 6.44684 32.7558 6.22532 33.1627 5.78844C33.4308 5.49924 33.5832 5.10051 33.6234 4.59102H31.627V3.87971H34.2903C34.3224 4.03354 34.3316 4.18245 34.3316 4.32643Z" fill="white"/>
<path fill-rule="evenodd" clip-rule="evenodd" d="M31.627 1.3125C30.924 1.3125 30.3296 1.57268 29.8323 2.10343C29.3355 2.63139 29.0836 3.28423 29.0836 4.08646C29.0836 4.88807 29.3347 5.54085 29.8321 6.07417C30.3295 6.60028 30.9241 6.86042 31.627 6.86042C32.3725 6.86042 32.9617 6.60117 33.4176 6.08993L33.4208 6.08638C33.8082 5.66512 34.0191 5.08829 34.0191 4.32643C34.0191 4.28117 34.0181 4.2365 34.0157 4.19221H31.9395V4.27852H33.9614L33.9349 4.61555C33.891 5.17343 33.7208 5.64613 33.3918 6.00092C32.9242 6.50303 32.3244 6.75934 31.627 6.75934C30.959 6.75934 30.3798 6.49932 29.9007 6.01258L29.898 6.0098C29.413 5.50459 29.1795 4.85043 29.1795 4.08646C29.1795 3.32181 29.4134 2.67284 29.898 2.16806L29.8995 2.16652C30.3803 1.67249 30.9606 1.4185 31.627 1.4185C32.2246 1.4185 32.733 1.5989 33.1353 1.96772L33.1922 1.90602C33.039 1.76196 32.8501 1.63673 32.6263 1.53423C32.3052 1.38889 31.9733 1.3125 31.627 1.3125ZM29.3762 1.67608C29.9882 1.02295 30.7462 0.6875 31.627 0.6875C32.069 0.6875 32.4886 0.785766 32.8847 0.965152L32.8859 0.965674C33.282 1.14702 33.6162 1.3979 33.8627 1.71728L34.0239 1.92615L33.1177 2.9086L32.8909 2.62107C32.5878 2.23674 32.1811 2.0435 31.627 2.0435C31.1386 2.0435 30.7175 2.22246 30.3481 2.60166C29.992 2.973 29.8045 3.45845 29.8045 4.08646C29.8045 4.71479 29.9922 5.2047 30.3475 5.57554C30.7184 5.95178 31.1404 6.13434 31.627 6.13434C32.1557 6.13434 32.5877 5.94722 32.9337 5.57575C33.0863 5.41113 33.1995 5.19173 33.263 4.90352H31.3145V3.56721H34.5444L34.5963 3.8159C34.6342 3.99758 34.6441 4.16939 34.6441 4.32643C34.6441 5.2078 34.3971 5.94711 33.8825 6.5077C33.3004 7.15946 32.5378 7.48542 31.627 7.48542C30.7464 7.48542 29.9889 7.15016 29.3771 6.50271L29.3758 6.50129C28.7619 5.84347 28.4586 5.03447 28.4586 4.08646C28.4586 3.13871 28.7614 2.32954 29.3762 1.67608Z" fill="white"/>
<path d="M38.5564 1.8601H36.0546V3.73068H38.31V4.442H36.0546V6.31258H38.5564V7.03743H35.3464V1.13525H38.5564V1.8601Z" fill="white"/>
<path fill-rule="evenodd" clip-rule="evenodd" d="M35.0339 0.822754H38.8689V2.1726H36.3671V3.41818H38.6225V4.7545H36.3671V6.00008H38.8689V7.34993H35.0339V0.822754ZM35.6589 1.44775V6.72493H38.2439V6.62508H35.7421V4.1295H37.9975V4.04318H35.7421V1.5476H38.2439V1.44775H35.6589Z" fill="white"/>
<path d="M41.5391 7.03743H40.8308V1.8601H39.2963V1.13525H43.0747V1.8601H41.5391V7.03743Z" fill="white"/>
<path fill-rule="evenodd" clip-rule="evenodd" d="M38.9838 0.822754H43.3872V2.1726H41.8516V7.34993H40.5183V2.1726H38.9838V0.822754ZM39.6088 1.44775V1.5476H41.1433V6.72493H41.2266V1.5476H42.7622V1.44775H39.6088Z" fill="white"/>
<path d="M45.8091 7.03743V1.13525H46.5162V7.03743H45.8091Z" fill="white"/>
<path fill-rule="evenodd" clip-rule="evenodd" d="M45.4966 0.822754H46.8287V7.34993H45.4966V0.822754ZM46.1216 1.44775V6.72493H46.2037V1.44775H46.1216Z" fill="white"/>
<path d="M49.6501 7.03743H48.9476V1.8601H47.4074V1.13525H51.1904V1.8601H49.6501V7.03743Z" fill="white"/>
<path fill-rule="evenodd" clip-rule="evenodd" d="M47.0949 0.822754H51.5029V2.1726H49.9626V7.34993H48.6351V2.1726H47.0949V0.822754ZM47.7199 1.44775V1.5476H49.2601V6.72493H49.3376V1.5476H50.8779V1.44775H47.7199Z" fill="white"/>
<path d="M58.3439 6.27824C57.8018 6.8751 57.1302 7.17292 56.3292 7.17292C55.5235 7.17292 54.8519 6.8751 54.3099 6.27824C53.7689 5.6826 53.4996 4.9516 53.4996 4.08646C53.4996 3.22131 53.7689 2.49031 54.3099 1.89468C54.8519 1.29782 55.5235 1 56.3292 1C57.1256 1 57.7972 1.29782 58.3393 1.8996C58.8848 2.50016 59.1541 3.22624 59.1541 4.08646C59.1541 4.9516 58.8848 5.6826 58.3439 6.27824ZM54.8336 5.78352C55.2416 6.22532 55.7378 6.44684 56.3292 6.44684C56.9159 6.44684 57.4167 6.22532 57.8201 5.78352C58.227 5.34172 58.4332 4.77439 58.4332 4.08646C58.4332 3.39853 58.227 2.8312 57.8201 2.3894C57.4167 1.9476 56.9159 1.72608 56.3292 1.72608C55.7378 1.72608 55.2416 1.9476 54.8336 2.3894C54.4268 2.8312 54.2205 3.39853 54.2205 4.08646C54.2205 4.77439 54.4268 5.34172 54.8336 5.78352Z" fill="white"/>
<path fill-rule="evenodd" clip-rule="evenodd" d="M56.3292 1.3125C55.6118 1.3125 55.0242 1.57299 54.5412 2.10478L54.3099 1.89468L54.5412 2.10478C54.0569 2.63809 53.8121 3.29224 53.8121 4.08646C53.8121 4.88067 54.0569 5.53483 54.5412 6.06815C55.0242 6.59993 55.6118 6.86042 56.3292 6.86042C57.0416 6.86042 57.6294 6.60014 58.1125 6.06815C58.5968 5.53483 58.8416 4.88067 58.8416 4.08646C58.8416 3.2983 58.5976 2.64872 58.108 2.10972L58.1071 2.10875C57.6239 1.57236 57.0366 1.3125 56.3292 1.3125ZM54.0785 1.68458C54.6797 1.02264 55.4352 0.6875 56.3292 0.6875C57.2145 0.6875 57.9701 1.02312 58.5711 1.69C59.1722 2.352 59.4666 3.15441 59.4666 4.08646C59.4666 5.02253 59.1727 5.83038 58.5752 6.48833L58.5752 6.48833C57.9742 7.15006 57.2188 7.48542 56.3292 7.48542C55.4352 7.48542 54.6797 7.15027 54.0785 6.48833L54.0785 6.48833C53.481 5.83038 53.1871 5.02253 53.1871 4.08646C53.1871 3.15038 53.481 2.34254 54.0785 1.68459L54.0785 1.68458ZM54.604 2.17739C55.0695 1.67337 55.6481 1.41358 56.3292 1.41358C57.0047 1.41358 57.5887 1.67277 58.0505 2.1782C58.5174 2.68555 58.7457 3.33183 58.7457 4.08646C58.7457 4.84106 58.5174 5.48733 58.0505 5.99468C57.5888 6.50013 57.0047 6.75934 56.3292 6.75934C55.6481 6.75934 55.0695 6.49955 54.604 5.99553L54.6037 5.9952C54.1365 5.48778 53.908 4.84133 53.908 4.08646C53.908 3.33159 54.1365 2.68514 54.6037 2.17771L54.604 2.17739ZM55.0633 2.60127C54.717 2.97742 54.533 3.46557 54.533 4.08646C54.533 4.70739 54.717 5.19556 55.0634 5.57172C55.4139 5.95116 55.8276 6.13434 56.3292 6.13434C56.8269 6.13434 57.2443 5.95066 57.5894 5.5728L57.5902 5.57183C57.9366 5.19566 58.1207 4.70745 58.1207 4.08646C58.1207 3.46546 57.9366 2.97726 57.5902 2.60109L57.5894 2.60011C57.2443 2.22226 56.8269 2.03858 56.3292 2.03858C55.8275 2.03858 55.4138 2.22178 55.0633 2.60127Z" fill="white"/>
<path d="M60.1473 7.03743V1.13525H61.0069L63.6794 5.72556H63.7103L63.6794 4.59091V1.13525H64.3865V7.03743H63.6484L60.8498 2.22068H60.8189L60.8498 3.36026V7.03743H60.1473Z" fill="white"/>
<path fill-rule="evenodd" clip-rule="evenodd" d="M59.8348 0.822754H61.1865L63.3669 4.56772V0.822754H64.699V7.34993H63.4686L61.1623 3.38059V7.34993H59.8348V0.822754ZM60.4598 1.44775V6.72493H60.5373V3.3645L60.4978 1.90818H61.0297L63.8283 6.72493H64.074V1.44775H63.9919V4.58664L64.0314 6.03806H63.4997L60.8272 1.44775H60.4598Z" fill="white"/>
<path d="M53.3257 15.6569C51.1723 15.6569 49.4131 17.4167 49.4131 19.8447C49.4131 22.2531 51.1723 24.0314 53.3257 24.0314C55.4836 24.0314 57.2427 22.2531 57.2427 19.8447C57.2427 17.4167 55.4836 15.6569 53.3257 15.6569ZM53.3257 22.3823C52.1441 22.3823 51.1276 21.3351 51.1276 19.8447C51.1276 18.3347 52.1441 17.3059 53.3257 17.3059C54.5072 17.3059 55.5283 18.3347 55.5283 19.8447C55.5283 21.3351 54.5072 22.3823 53.3257 22.3823ZM44.789 15.6569C42.631 15.6569 40.8765 17.4167 40.8765 19.8447C40.8765 22.2531 42.631 24.0314 44.789 24.0314C46.9458 24.0314 48.7015 22.2531 48.7015 19.8447C48.7015 17.4167 46.9458 15.6569 44.789 15.6569ZM44.789 22.3823C43.6063 22.3823 42.5863 21.3351 42.5863 19.8447C42.5863 18.3347 43.6063 17.3059 44.789 17.3059C45.9705 17.3059 46.987 18.3347 46.987 19.8447C46.987 21.3351 45.9705 22.3823 44.789 22.3823ZM34.6307 16.9404V18.7199H38.5879C38.4721 19.7143 38.1627 20.4453 37.6882 20.9548C37.1106 21.5701 36.211 22.2531 34.6307 22.2531C32.1954 22.2531 30.2884 20.1426 30.2884 17.5274C30.2884 14.9123 32.1954 12.8018 34.6307 12.8018C35.9474 12.8018 36.9055 13.3543 37.6126 14.0706L38.7804 12.8165C37.7914 11.8025 36.4757 11.0235 34.6307 11.0235C31.2912 11.0235 28.4846 13.9413 28.4846 17.5274C28.4846 21.1135 31.2912 24.0314 34.6307 24.0314C36.4356 24.0314 37.7914 23.3964 38.8572 22.2051C39.9493 21.0323 40.2897 19.3832 40.2897 18.0517C40.2897 17.6382 40.2576 17.2579 40.2003 16.9404H34.6307ZM76.1692 18.32C75.8472 17.3835 74.8536 15.6569 72.8297 15.6569C70.8242 15.6569 69.1545 17.3539 69.1545 19.8447C69.1545 22.1903 70.807 24.0314 73.0223 24.0314C74.8135 24.0314 75.8472 22.8586 76.2724 22.1756L74.943 21.2243C74.4995 21.9208 73.8955 22.3823 73.0223 22.3823C72.1547 22.3823 71.5324 21.9553 71.1336 21.1135L76.3492 18.7962L76.1692 18.32ZM70.8517 19.7143C70.807 18.0997 72.0195 17.2727 72.8882 17.2727C73.5689 17.2727 74.1465 17.6382 74.3391 18.1612L70.8517 19.7143ZM66.6126 23.7767H68.327V11.4702L66.6126 11.4702V23.7767ZM63.8048 16.5897H63.7475C63.3625 16.0999 62.6279 15.6569 61.6973 15.6569C59.7445 15.6569 57.959 17.4979 57.959 19.8583C57.959 22.2051 59.7445 24.0314 61.6973 24.0314C62.6279 24.0314 63.3625 23.5847 63.7475 23.0801H63.8048V23.6807C63.8048 25.2817 63.0084 26.142 61.7237 26.142C60.6762 26.142 60.0264 25.3297 59.7583 24.6467L58.2673 25.315C58.697 26.425 59.835 27.791 61.7237 27.791C63.7338 27.791 65.4299 26.521 65.4299 23.4308V15.9116H63.8048V16.5897ZM61.844 22.3823C60.6625 22.3823 59.6735 21.3203 59.6735 19.8583C59.6735 18.3827 60.6625 17.3059 61.844 17.3059C63.0084 17.3059 63.9263 18.3827 63.9263 19.8583C63.9263 21.3203 63.0084 22.3823 61.844 22.3823ZM84.196 11.4702H80.0955V23.7767H81.8054V19.1137H84.196C86.0949 19.1137 87.9572 17.6382 87.9572 15.2914C87.9572 12.9457 86.0903 11.4702 84.196 11.4702ZM84.2407 17.4019H81.8054V13.182H84.2407C85.5173 13.182 86.2462 14.3204 86.2462 15.2914C86.2462 16.2439 85.5173 17.4019 84.2407 17.4019ZM94.8104 15.6335C93.575 15.6335 92.2903 16.2193 91.762 17.5176L93.2793 18.2006C93.6059 17.5176 94.2064 17.2961 94.8413 17.2961C95.7283 17.2961 96.628 17.8683 96.6417 18.8787V19.0079C96.3323 18.8159 95.6699 18.5316 94.8551 18.5316C93.2208 18.5316 91.5557 19.4977 91.5557 21.3006C91.5557 22.9497 92.8942 24.0117 94.399 24.0117C95.5496 24.0117 96.1845 23.4542 96.5833 22.8057H96.6417V23.757L98.2931 23.757V19.0362C98.2931 16.8543 96.7758 15.6335 94.8104 15.6335ZM94.6041 22.3774C94.0448 22.3774 93.2655 22.0796 93.2655 21.3351C93.2655 20.3825 94.2374 20.017 95.0785 20.017C95.8315 20.017 96.1845 20.1955 96.6417 20.4305C96.5076 21.5701 95.5943 22.3774 94.6041 22.3774ZM104.31 15.903L102.344 21.2378H102.286L100.254 15.903H98.41L101.463 23.3582L99.7211 27.5067H101.508L106.212 15.903H104.31ZM88.8969 23.7767H90.6114V11.4702H88.8969V23.7767Z" fill="white"/>
<path d="M0.425173 1.66314C0.155859 1.96588 0 2.43722 0 3.04762L0 24.8202C0 25.4306 0.155859 25.9019 0.425173 26.2047L0.491642 26.2711L11.8533 14.0754V13.7875L0.491642 1.59176L0.425173 1.66314Z" fill="url(#paint0_linear_1_209)"/>
<path d="M15.6363 18.1426L11.8533 14.0753V13.7873L15.6409 9.72004L15.7257 9.77296L20.2112 12.5136C21.4913 13.2914 21.4913 14.5712 20.2112 15.3539L15.7257 18.0897L15.6363 18.1426Z" fill="url(#paint1_linear_1_209)"/>
<path d="M15.7265 18.0897L11.8541 13.9313L0.426025 26.2045C0.851198 26.6845 1.54454 26.7423 2.333 26.2624L15.7265 18.0897Z" fill="url(#paint2_linear_1_209)"/>
<path d="M15.7265 9.77329L2.333 1.60058C1.54454 1.12555 0.851198 1.18339 0.426025 1.66334L11.8541 13.9316L15.7265 9.77329Z" fill="url(#paint3_linear_1_209)"/>
<path d="M826.507 19.0693C826.771 19.0693 826.988 19.1602 827.158 19.3418C827.328 19.5176 827.413 19.7314 827.413 19.9834C827.413 20.1064 827.389 20.2266 827.342 20.3438C827.295 20.4609 827.222 20.5635 827.122 20.6514C826.677 21.0498 826.191 21.3486 825.663 21.5479C825.136 21.7412 824.562 21.8379 823.941 21.8379C822.593 21.8379 821.445 21.3604 820.496 20.4053C819.54 19.4502 819.063 18.2988 819.063 16.9512C819.063 15.6152 819.54 14.4668 820.496 13.5059C820.964 13.0312 821.486 12.6738 822.06 12.4336C822.64 12.1934 823.267 12.0732 823.941 12.0732C825.171 12.0732 826.232 12.4688 827.122 13.2598C827.333 13.4473 827.439 13.6787 827.439 13.9541C827.439 14.2178 827.354 14.4375 827.184 14.6133C827.014 14.7832 826.797 14.8682 826.534 14.8682C826.428 14.8682 826.323 14.8535 826.217 14.8242C826.112 14.7891 826.021 14.7334 825.945 14.6572C825.646 14.4053 825.332 14.2148 825.004 14.0859C824.682 13.957 824.328 13.8926 823.941 13.8926C823.519 13.8926 823.121 13.9746 822.746 14.1387C822.376 14.3027 822.051 14.5254 821.77 14.8066C821.495 15.082 821.275 15.4043 821.111 15.7734C820.953 16.1426 820.873 16.5352 820.873 16.9512C820.873 17.373 820.953 17.7686 821.111 18.1377C821.275 18.5068 821.495 18.832 821.77 19.1133C822.045 19.3887 822.368 19.6084 822.737 19.7725C823.112 19.9307 823.513 20.0098 823.941 20.0098C824.328 20.0098 824.682 19.9482 825.004 19.8252C825.332 19.7021 825.643 19.5146 825.936 19.2627C826.012 19.1924 826.097 19.1455 826.191 19.1221C826.29 19.0928 826.396 19.0752 826.507 19.0693ZM830.99 16.9688C830.99 18.9199 830.301 20.5781 828.924 21.9434C827.541 23.3145 825.889 24 823.967 24C822.995 24 822.092 23.8301 821.26 23.4902C820.434 23.1504 819.675 22.6348 818.984 21.9434C818.292 21.2578 817.777 20.502 817.437 19.6758C817.103 18.8438 816.936 17.9414 816.936 16.9688C816.936 15.0352 817.619 13.3828 818.984 12.0117C820.349 10.6348 822.01 9.94629 823.967 9.94629C825.913 9.94629 827.565 10.6348 828.924 12.0117C830.301 13.3711 830.99 15.0234 830.99 16.9688ZM823.941 11.3701C822.394 11.3701 821.076 11.915 819.986 13.0049C818.896 14.0947 818.351 15.4072 818.351 16.9424C818.351 17.7334 818.483 18.4541 818.746 19.1045C819.016 19.7549 819.429 20.3555 819.986 20.9062C821.07 21.9902 822.388 22.5322 823.941 22.5322C824.714 22.5322 825.429 22.4004 826.085 22.1367C826.747 21.8672 827.348 21.457 827.887 20.9062C828.977 19.8047 829.522 18.4834 829.522 16.9424C829.522 15.4072 828.977 14.0947 827.887 13.0049C826.797 11.915 825.482 11.3701 823.941 11.3701ZM839.796 11.8008V17.3906H841.571C841.952 17.3906 842.31 17.3174 842.644 17.1709C842.983 17.0244 843.279 16.8252 843.531 16.5732C843.789 16.3213 843.991 16.0254 844.138 15.6855C844.29 15.3457 844.366 14.9824 844.366 14.5957C844.366 14.2031 844.29 13.8369 844.138 13.4971C843.991 13.1572 843.789 12.8613 843.531 12.6094C843.279 12.3574 842.983 12.1611 842.644 12.0205C842.304 11.874 841.946 11.8008 841.571 11.8008H839.796ZM837.933 23.0684V10.8691C837.933 10.7402 837.956 10.6201 838.003 10.5088C838.05 10.3916 838.114 10.292 838.196 10.21C838.284 10.1221 838.384 10.0547 838.495 10.0078C838.606 9.96094 838.73 9.9375 838.864 9.9375H841.571C841.993 9.9375 842.4 9.99316 842.793 10.1045C843.191 10.2158 843.564 10.374 843.909 10.5791C844.255 10.7842 844.571 11.0303 844.858 11.3174C845.146 11.5986 845.389 11.9121 845.588 12.2578C845.793 12.6035 845.951 12.9756 846.063 13.374C846.18 13.7666 846.238 14.1738 846.238 14.5957C846.238 15.873 845.778 16.9717 844.858 17.8916C843.95 18.7998 842.855 19.2539 841.571 19.2539H839.796V23.0684C839.796 23.3262 839.705 23.5459 839.523 23.7275C839.342 23.9092 839.122 24 838.864 24C838.606 24 838.387 23.9092 838.205 23.7275C838.023 23.5459 837.933 23.3262 837.933 23.0684ZM849.477 11.8008V16.7139H851.938C852.278 16.7139 852.597 16.6494 852.896 16.5205C853.195 16.3916 853.453 16.2158 853.669 15.9932C853.892 15.7646 854.068 15.5039 854.197 15.2109C854.326 14.9121 854.39 14.5957 854.39 14.2617C854.39 13.9219 854.326 13.6025 854.197 13.3037C854.068 13.0049 853.892 12.7441 853.669 12.5215C853.447 12.2988 853.186 12.123 852.887 11.9941C852.588 11.8652 852.272 11.8008 851.938 11.8008H849.477ZM847.614 23.0684V10.8691C847.614 10.7402 847.637 10.6201 847.684 10.5088C847.731 10.3916 847.795 10.292 847.877 10.21C847.965 10.1221 848.065 10.0547 848.176 10.0078C848.287 9.96094 848.411 9.9375 848.545 9.9375H851.938C852.53 9.9375 853.086 10.0518 853.608 10.2803C854.135 10.5088 854.592 10.8193 854.979 11.2119C855.371 11.6045 855.682 12.0645 855.911 12.5918C856.139 13.1133 856.253 13.6699 856.253 14.2617C856.253 14.6484 856.203 15.0264 856.104 15.3955C856.01 15.7588 855.867 16.1045 855.673 16.4326C855.486 16.7549 855.248 17.0566 854.961 17.3379C854.68 17.6133 854.352 17.8564 853.977 18.0674L856.781 22.5586C856.88 22.7227 856.93 22.8926 856.93 23.0684C856.93 23.2031 856.907 23.3262 856.86 23.4375C856.813 23.5488 856.745 23.6484 856.658 23.7363C856.576 23.8184 856.476 23.8828 856.359 23.9297C856.247 23.9766 856.127 24 855.998 24C855.67 24 855.404 23.8477 855.199 23.543L852.096 18.5771H849.477V23.0684C849.477 23.3262 849.386 23.5459 849.204 23.7275C849.023 23.9092 848.803 24 848.545 24C848.287 24 848.068 23.9092 847.886 23.7275C847.704 23.5459 847.614 23.3262 847.614 23.0684ZM865.416 11.8008C864.689 11.8008 864.024 11.9268 863.421 12.1787C862.823 12.4307 862.269 12.8115 861.759 13.3213C861.25 13.8311 860.869 14.3848 860.617 14.9824C860.371 15.5801 860.248 16.2422 860.248 16.9688C860.248 18.3984 860.752 19.6172 861.759 20.625C862.767 21.6328 863.986 22.1367 865.416 22.1367C866.845 22.1367 868.064 21.6328 869.072 20.625C870.08 19.6172 870.584 18.3984 870.584 16.9688C870.584 15.5449 870.08 14.3291 869.072 13.3213C868.058 12.3076 866.84 11.8008 865.416 11.8008ZM872.447 16.9688C872.447 18.9082 871.758 20.5664 870.382 21.9434C869.01 23.3145 867.355 24 865.416 24C863.47 24 861.812 23.3145 860.441 21.9434C859.07 20.5723 858.384 18.9141 858.384 16.9688C858.384 15.0293 859.07 13.374 860.441 12.0029C861.818 10.626 863.476 9.9375 865.416 9.9375C867.349 9.9375 869.005 10.626 870.382 12.0029C871.073 12.6943 871.589 13.4502 871.928 14.2705C872.274 15.0908 872.447 15.9902 872.447 16.9688ZM875.211 10.5615L877.716 19.5879L880.212 10.5703C880.259 10.3887 880.364 10.2393 880.528 10.1221C880.698 9.99902 880.892 9.9375 881.108 9.9375C881.296 9.9375 881.472 9.99316 881.636 10.1045C881.806 10.21 881.923 10.3623 881.987 10.5615L884.492 19.5879L887.006 10.5615C887.047 10.4326 887.12 10.3154 887.226 10.21C887.407 10.0283 887.627 9.9375 887.885 9.9375C888.143 9.9375 888.359 10.0283 888.535 10.21C888.717 10.3916 888.808 10.6113 888.808 10.8691C888.802 10.9863 888.781 11.1094 888.746 11.2383L885.433 23.2441C885.351 23.4727 885.228 23.6572 885.063 23.7979C884.899 23.9326 884.709 24 884.492 24C884.229 24 884.012 23.9062 883.842 23.7188C883.719 23.5898 883.625 23.4375 883.561 23.2617L881.108 14.376L878.656 23.2441C878.574 23.4727 878.451 23.6572 878.287 23.7979C878.123 23.9326 877.933 24 877.716 24C877.452 24 877.232 23.9062 877.057 23.7188C876.939 23.6016 876.849 23.4492 876.784 23.2617L873.453 11.2295C873.418 11.0947 873.4 10.9746 873.4 10.8691C873.4 10.6113 873.491 10.3916 873.673 10.21C873.854 10.0283 874.074 9.9375 874.332 9.9375C874.59 9.9375 874.81 10.0283 874.991 10.21C875.091 10.3154 875.164 10.4326 875.211 10.5615ZM899.464 22.1367C899.722 22.1367 899.942 22.2275 900.123 22.4092C900.305 22.5908 900.396 22.8105 900.396 23.0684C900.396 23.3262 900.305 23.5459 900.123 23.7275C899.942 23.9092 899.722 24 899.464 24H891.334C891.2 24 891.076 23.9766 890.965 23.9297C890.854 23.8828 890.754 23.8184 890.666 23.7363C890.584 23.6484 890.52 23.5488 890.473 23.4375C890.426 23.3262 890.403 23.2031 890.403 23.0684V10.8691C890.403 10.7402 890.426 10.6201 890.473 10.5088C890.52 10.3916 890.584 10.292 890.666 10.21C890.754 10.1221 890.854 10.0547 890.965 10.0078C891.076 9.96094 891.2 9.9375 891.334 9.9375H899.464C899.722 9.9375 899.942 10.0283 900.123 10.21C900.305 10.3916 900.396 10.6113 900.396 10.8691C900.396 11.127 900.305 11.3467 900.123 11.5283C899.942 11.71 899.722 11.8008 899.464 11.8008H892.266V16.0371H897.434C897.692 16.0371 897.911 16.1279 898.093 16.3096C898.275 16.4912 898.366 16.7109 898.366 16.9688C898.366 17.2266 898.275 17.4463 898.093 17.6279C897.911 17.8096 897.692 17.9004 897.434 17.9004H892.266V22.1367H899.464ZM903.678 11.8008V15.3604H905.463C905.709 15.3604 905.937 15.3135 906.148 15.2197C906.365 15.126 906.552 14.9971 906.711 14.833C906.875 14.6689 907.004 14.4814 907.097 14.2705C907.191 14.0537 907.238 13.8223 907.238 13.5762C907.238 13.3359 907.191 13.1104 907.097 12.8994C907.004 12.6826 906.875 12.4922 906.711 12.3281C906.547 12.1641 906.356 12.0352 906.139 11.9414C905.928 11.8477 905.703 11.8008 905.463 11.8008H903.678ZM903.678 17.2236V22.1367H906.139C906.479 22.1367 906.798 22.0723 907.097 21.9434C907.396 21.8145 907.654 21.6387 907.871 21.416C908.093 21.1934 908.269 20.9326 908.398 20.6338C908.527 20.335 908.591 20.0156 908.591 19.6758C908.591 19.3418 908.527 19.0254 908.398 18.7266C908.269 18.4277 908.093 18.167 907.871 17.9443C907.648 17.7217 907.387 17.5459 907.089 17.417C906.79 17.2881 906.473 17.2236 906.139 17.2236H903.678ZM905.463 9.9375C905.961 9.9375 906.429 10.0342 906.869 10.2275C907.314 10.415 907.701 10.6758 908.029 11.0098C908.363 11.3379 908.624 11.7246 908.811 12.1699C909.005 12.6094 909.101 13.0781 909.101 13.5762C909.101 14.4668 908.826 15.2432 908.275 15.9053C908.632 16.1162 908.946 16.3594 909.215 16.6348C909.485 16.9102 909.711 17.2119 909.892 17.54C910.08 17.8623 910.22 18.2051 910.314 18.5684C910.408 18.9258 910.455 19.2949 910.455 19.6758C910.455 20.2676 910.34 20.8271 910.112 21.3545C909.883 21.876 909.573 22.333 909.18 22.7256C908.794 23.1182 908.337 23.4287 907.809 23.6572C907.288 23.8857 906.731 24 906.139 24H902.747C902.618 24 902.498 23.9766 902.386 23.9297C902.275 23.877 902.175 23.8096 902.088 23.7275C902.006 23.6455 901.938 23.5488 901.885 23.4375C901.839 23.3203 901.815 23.1973 901.815 23.0684V10.8691C901.815 10.7402 901.839 10.6201 901.885 10.5088C901.938 10.3916 902.006 10.292 902.088 10.21C902.175 10.1279 902.275 10.0635 902.386 10.0166C902.498 9.96387 902.618 9.9375 902.747 9.9375H905.463ZM914.203 22.752C914.203 23.0977 914.08 23.3936 913.834 23.6396C913.594 23.8799 913.301 24 912.955 24C912.609 24 912.313 23.8799 912.067 23.6396C911.827 23.3936 911.707 23.0977 911.707 22.752C911.707 22.4062 911.827 22.1133 912.067 21.873C912.313 21.627 912.609 21.5039 912.955 21.5039C913.301 21.5039 913.594 21.627 913.834 21.873C914.08 22.1133 914.203 22.4062 914.203 22.752ZM922.851 11.8008V15.3604H924.635C924.881 15.3604 925.11 15.3135 925.321 15.2197C925.538 15.126 925.725 14.9971 925.883 14.833C926.047 14.6689 926.176 14.4814 926.27 14.2705C926.364 14.0537 926.411 13.8223 926.411 13.5762C926.411 13.3359 926.364 13.1104 926.27 12.8994C926.176 12.6826 926.047 12.4922 925.883 12.3281C925.719 12.1641 925.529 12.0352 925.312 11.9414C925.101 11.8477 924.876 11.8008 924.635 11.8008H922.851ZM922.851 17.2236V22.1367H925.312C925.652 22.1367 925.971 22.0723 926.27 21.9434C926.569 21.8145 926.827 21.6387 927.044 21.416C927.266 21.1934 927.442 20.9326 927.571 20.6338C927.7 20.335 927.764 20.0156 927.764 19.6758C927.764 19.3418 927.7 19.0254 927.571 18.7266C927.442 18.4277 927.266 18.167 927.044 17.9443C926.821 17.7217 926.56 17.5459 926.261 17.417C925.963 17.2881 925.646 17.2236 925.312 17.2236H922.851ZM924.635 9.9375C925.133 9.9375 925.602 10.0342 926.042 10.2275C926.487 10.415 926.874 10.6758 927.202 11.0098C927.536 11.3379 927.796 11.7246 927.984 12.1699C928.177 12.6094 928.274 13.0781 928.274 13.5762C928.274 14.4668 927.999 15.2432 927.448 15.9053C927.805 16.1162 928.119 16.3594 928.388 16.6348C928.658 16.9102 928.883 17.2119 929.065 17.54C929.253 17.8623 929.393 18.2051 929.487 18.5684C929.581 18.9258 929.628 19.2949 929.628 19.6758C929.628 20.2676 929.513 20.8271 929.285 21.3545C929.056 21.876 928.746 22.333 928.353 22.7256C927.966 23.1182 927.509 23.4287 926.982 23.6572C926.461 23.8857 925.904 24 925.312 24H921.92C921.791 24 921.671 23.9766 921.559 23.9297C921.448 23.877 921.348 23.8096 921.26 23.7275C921.178 23.6455 921.111 23.5488 921.058 23.4375C921.011 23.3203 920.988 23.1973 920.988 23.0684V10.8691C920.988 10.7402 921.011 10.6201 921.058 10.5088C921.111 10.3916 921.178 10.292 921.26 10.21C921.348 10.1279 921.448 10.0635 921.559 10.0166C921.671 9.96387 921.791 9.9375 921.92 9.9375H924.635ZM945.087 24H944.78C944.656 24 944.539 23.9766 944.428 23.9297C944.317 23.8828 944.22 23.8184 944.138 23.7363C944.056 23.6543 943.989 23.5576 943.936 23.4463C943.889 23.335 943.865 23.2178 943.865 23.0947C943.461 23.4111 943.033 23.6426 942.582 23.7891C942.131 23.9297 941.642 24 941.115 24C940.488 24 939.896 23.8799 939.339 23.6396C938.782 23.3936 938.296 23.0625 937.88 22.6465C937.464 22.2305 937.133 21.7441 936.887 21.1875C936.647 20.6309 936.527 20.0391 936.527 19.4121V15.0703C936.527 14.9473 936.55 14.8301 936.597 14.7188C936.644 14.6074 936.708 14.5107 936.79 14.4287C936.872 14.3408 936.969 14.2734 937.08 14.2266C937.192 14.1797 937.312 14.1562 937.441 14.1562C937.57 14.1562 937.69 14.1797 937.801 14.2266C937.912 14.2734 938.009 14.3408 938.091 14.4287C938.173 14.5107 938.238 14.6074 938.284 14.7188C938.337 14.8301 938.364 14.9473 938.364 15.0703V19.4121C938.364 19.793 938.434 20.1504 938.574 20.4844C938.721 20.8184 938.917 21.1113 939.163 21.3633C939.415 21.6094 939.708 21.8057 940.042 21.9521C940.376 22.0928 940.734 22.1631 941.115 22.1631C941.49 22.1631 941.844 22.0928 942.178 21.9521C942.512 21.8057 942.805 21.6064 943.057 21.3545C943.309 21.1025 943.505 20.8125 943.646 20.4844C943.792 20.1504 943.865 19.793 943.865 19.4121V15.0703C943.865 14.9473 943.889 14.8301 943.936 14.7188C943.983 14.6074 944.047 14.5107 944.129 14.4287C944.217 14.3408 944.317 14.2734 944.428 14.2266C944.539 14.1797 944.656 14.1562 944.78 14.1562C944.908 14.1562 945.029 14.1797 945.14 14.2266C945.251 14.2734 945.348 14.3408 945.43 14.4287C945.512 14.5107 945.576 14.6074 945.623 14.7188C945.676 14.8301 945.702 14.9473 945.702 15.0703V22.1631H946.133C946.262 22.1631 946.382 22.1865 946.493 22.2334C946.611 22.2803 946.71 22.3477 946.792 22.4355C946.88 22.5176 946.948 22.6172 946.994 22.7344C947.041 22.8457 947.065 22.9658 947.065 23.0947C947.065 24.208 946.842 25.2217 946.397 26.1357C946.321 26.3174 946.2 26.4609 946.036 26.5664C945.878 26.6777 945.705 26.7334 945.518 26.7334C945.389 26.7334 945.269 26.707 945.157 26.6543C945.046 26.6074 944.947 26.543 944.859 26.4609C944.777 26.3789 944.709 26.2793 944.656 26.1621C944.61 26.0508 944.586 25.9307 944.586 25.8018C944.586 25.6494 944.624 25.5029 944.7 25.3623C944.917 24.9229 945.046 24.4688 945.087 24ZM956.535 18.1641C956.435 17.8418 956.286 17.5488 956.086 17.2852C955.893 17.0156 955.665 16.7871 955.401 16.5996C955.143 16.4062 954.856 16.2568 954.54 16.1514C954.229 16.0459 953.907 15.9932 953.573 15.9932C953.239 15.9932 952.914 16.0459 952.597 16.1514C952.281 16.2568 951.991 16.4062 951.727 16.5996C951.463 16.7871 951.235 17.0156 951.042 17.2852C950.848 17.5488 950.705 17.8418 950.611 18.1641H956.535ZM956.139 21.2314C956.403 21.2314 956.62 21.3193 956.79 21.4951C956.965 21.665 957.053 21.8818 957.053 22.1455C957.053 22.4033 956.965 22.623 956.79 22.8047C955.881 23.6016 954.809 24 953.573 24C952.213 24 951.053 23.5195 950.092 22.5586C949.131 21.5977 948.651 20.4375 948.651 19.0781C948.651 17.7188 949.131 16.5586 950.092 15.5977C951.053 14.6367 952.213 14.1562 953.573 14.1562C954.92 14.1562 956.081 14.6367 957.053 15.5977C957.534 16.0723 957.894 16.6025 958.134 17.1885C958.375 17.7686 958.495 18.3984 958.495 19.0781C958.495 19.3418 958.404 19.5615 958.222 19.7373C958.046 19.9072 957.83 19.9922 957.572 19.9922H950.611C950.711 20.3145 950.857 20.6104 951.05 20.8799C951.244 21.1436 951.469 21.3721 951.727 21.5654C951.991 21.7529 952.278 21.8994 952.588 22.0049C952.905 22.1104 953.233 22.1631 953.573 22.1631C953.96 22.1631 954.314 22.1045 954.636 21.9873C954.959 21.8701 955.257 21.6943 955.533 21.46C955.709 21.3135 955.911 21.2373 956.139 21.2314ZM964.66 14.1738C964.273 14.1738 964.004 14.3379 963.851 14.666L960.142 22.7344C960.096 22.8574 960.072 22.9805 960.072 23.1035C960.072 23.2207 960.096 23.335 960.142 23.4463C960.189 23.5576 960.254 23.6572 960.336 23.7451C960.418 23.8271 960.515 23.8916 960.626 23.9385C960.737 23.9854 960.857 24.0088 960.986 24.0088C961.144 24.0088 961.297 23.9707 961.443 23.8945C961.59 23.8125 961.704 23.6982 961.786 23.5518L964.66 17.2939L967.525 23.543C967.695 23.8535 967.962 24.0088 968.325 24.0088C968.454 24.0088 968.574 23.9854 968.685 23.9385C968.797 23.8916 968.893 23.8271 968.975 23.7451C969.058 23.6572 969.122 23.5576 969.169 23.4463C969.222 23.335 969.248 23.2207 969.248 23.1035C969.248 22.9688 969.222 22.8457 969.169 22.7344L965.469 14.666C965.305 14.3379 965.035 14.1738 964.66 14.1738ZM976.442 18.1641V15.9932H974.025C973.866 15.9932 973.72 16.0254 973.585 16.0898C973.45 16.1484 973.333 16.2305 973.234 16.3359C973.14 16.4355 973.067 16.5498 973.014 16.6787C972.961 16.8076 972.935 16.9395 972.935 17.0742C972.935 17.2207 972.961 17.3613 973.014 17.4961C973.072 17.625 973.152 17.7393 973.251 17.8389C973.351 17.9385 973.465 18.0176 973.594 18.0762C973.729 18.1348 973.872 18.1641 974.025 18.1641H976.442ZM977.356 14.1562C977.485 14.1562 977.605 14.1797 977.716 14.2266C977.827 14.2734 977.924 14.3408 978.006 14.4287C978.088 14.5107 978.153 14.6074 978.199 14.7188C978.252 14.8301 978.279 14.9473 978.279 15.0703V23.0859C978.279 23.209 978.252 23.3262 978.199 23.4375C978.153 23.5488 978.088 23.6484 978.006 23.7363C977.924 23.8184 977.827 23.8828 977.716 23.9297C977.605 23.9766 977.485 24 977.356 24C977.233 24 977.115 23.9766 977.004 23.9297C976.893 23.8828 976.793 23.8184 976.705 23.7363C976.623 23.6484 976.559 23.5488 976.512 23.4375C976.465 23.3262 976.442 23.209 976.442 23.0859V19.9922H974.693C974.277 19.9922 973.951 20.1943 973.717 20.5986L972.188 23.4463C971.994 23.8154 971.716 24 971.353 24C971.224 24 971.104 23.9766 970.992 23.9297C970.881 23.8828 970.784 23.8184 970.702 23.7363C970.62 23.6484 970.556 23.5488 970.509 23.4375C970.462 23.3262 970.439 23.209 970.439 23.0859C970.439 22.9043 970.483 22.7432 970.571 22.6025L972.091 19.7285C972.144 19.623 972.205 19.5234 972.276 19.4297C972.082 19.2539 971.912 19.0781 971.766 18.9023C971.619 18.7266 971.496 18.5449 971.397 18.3574C971.303 18.1699 971.23 17.9707 971.177 17.7598C971.13 17.5488 971.107 17.3203 971.107 17.0742C971.107 16.6699 971.183 16.292 971.335 15.9404C971.493 15.583 971.704 15.2725 971.968 15.0088C972.232 14.7451 972.539 14.5371 972.891 14.3848C973.248 14.2324 973.626 14.1562 974.025 14.1562H977.356ZM982.818 19.0693L979.97 15.6768C979.83 15.5186 979.759 15.3164 979.759 15.0703C979.759 14.9473 979.783 14.8301 979.83 14.7188C979.876 14.6074 979.941 14.5107 980.023 14.4287C980.105 14.3408 980.202 14.2734 980.313 14.2266C980.424 14.1797 980.544 14.1562 980.673 14.1562C980.949 14.1562 981.177 14.2559 981.359 14.4551L984.013 17.6279L986.668 14.4551C986.843 14.2559 987.069 14.1562 987.344 14.1562C987.473 14.1562 987.593 14.1797 987.705 14.2266C987.816 14.2734 987.913 14.3408 987.995 14.4287C988.077 14.5107 988.141 14.6074 988.188 14.7188C988.241 14.8301 988.267 14.9473 988.267 15.0703C988.267 15.293 988.194 15.4951 988.047 15.6768L985.2 19.0693L988.074 22.5146C988.203 22.6611 988.267 22.8516 988.267 23.0859C988.267 23.209 988.241 23.3262 988.188 23.4375C988.141 23.5488 988.077 23.6484 987.995 23.7363C987.913 23.8184 987.816 23.8828 987.705 23.9297C987.593 23.9766 987.473 24 987.344 24C987.092 24 986.873 23.9062 986.685 23.7188L984.013 20.502L981.324 23.7188C981.148 23.9062 980.931 24 980.673 24C980.544 24 980.424 23.9766 980.313 23.9297C980.202 23.8828 980.105 23.8184 980.023 23.7363C979.941 23.6484 979.876 23.5488 979.83 23.4375C979.783 23.3262 979.759 23.209 979.759 23.0859C979.759 22.8574 979.821 22.667 979.944 22.5146L982.818 19.0693ZM1005.1 19.0781C1005.1 20.4492 1004.62 21.6094 1003.66 22.5586C1002.68 23.5195 1001.52 24 1000.18 24C998.817 24 997.656 23.5195 996.695 22.5586C995.735 21.5977 995.254 20.4375 995.254 19.0781C995.254 17.7188 995.735 16.5586 996.695 15.5977C997.656 14.6367 998.817 14.1562 1000.18 14.1562C1001.52 14.1562 1002.68 14.6367 1003.66 15.5977C1004.14 16.0781 1004.49 16.6084 1004.73 17.1885C1004.97 17.7686 1005.09 18.3984 1005.1 19.0781ZM1000.18 15.9932C999.742 15.9932 999.338 16.0752 998.963 16.2393C998.588 16.4033 998.263 16.626 997.987 16.9072C997.712 17.1826 997.492 17.5078 997.328 17.8828C997.17 18.2578 997.091 18.6562 997.091 19.0781C997.091 19.5 997.17 19.8984 997.328 20.2734C997.492 20.6484 997.712 20.9766 997.987 21.2578C998.263 21.5332 998.588 21.7529 998.963 21.917C999.338 22.0811 999.742 22.1631 1000.18 22.1631C1000.6 22.1631 1001.01 22.0811 1001.38 21.917C1001.76 21.7529 1002.08 21.5303 1002.36 21.249C1002.64 20.9678 1002.86 20.6426 1003.01 20.2734C1003.18 19.8984 1003.26 19.5 1003.26 19.0781C1003.26 18.6562 1003.18 18.2607 1003.01 17.8916C1002.86 17.5166 1002.64 17.1885 1002.36 16.9072C1002.08 16.626 1001.76 16.4033 1001.38 16.2393C1001.01 16.0752 1000.6 15.9932 1000.18 15.9932ZM1014.69 19.0781C1014.69 18.6562 1014.61 18.2607 1014.44 17.8916C1014.29 17.5166 1014.07 17.1885 1013.79 16.9072C1013.51 16.626 1013.19 16.4033 1012.81 16.2393C1012.44 16.0752 1012.03 15.9932 1011.61 15.9932C1011.17 15.9932 1010.77 16.0752 1010.39 16.2393C1010.02 16.4033 1009.69 16.626 1009.42 16.9072C1009.14 17.1826 1008.92 17.5078 1008.76 17.8828C1008.6 18.2578 1008.52 18.6562 1008.52 19.0781C1008.52 19.5 1008.6 19.8984 1008.76 20.2734C1008.92 20.6484 1009.14 20.9766 1009.42 21.2578C1009.69 21.5332 1010.02 21.7529 1010.39 21.917C1010.77 22.0811 1011.17 22.1631 1011.61 22.1631C1012.03 22.1631 1012.44 22.0811 1012.81 21.917C1013.19 21.7529 1013.51 21.5303 1013.79 21.249C1014.07 20.9678 1014.29 20.6426 1014.44 20.2734C1014.61 19.8984 1014.69 19.5 1014.69 19.0781ZM1009.42 13.5586C1008.95 14.0273 1008.66 14.5781 1008.56 15.2109C1009.42 14.5078 1010.44 14.1562 1011.61 14.1562C1012.95 14.1562 1014.11 14.6367 1015.09 15.5977C1015.57 16.0723 1015.93 16.6025 1016.17 17.1885C1016.41 17.7686 1016.53 18.3984 1016.53 19.0781C1016.53 20.4492 1016.05 21.6094 1015.09 22.5586C1014.11 23.5195 1012.95 24 1011.61 24C1010.25 24 1009.09 23.5195 1008.13 22.5586C1007.16 21.5977 1006.68 20.4375 1006.68 19.0781V15.7383C1006.68 15.0645 1006.81 14.4316 1007.07 13.8398C1007.33 13.2422 1007.69 12.7207 1008.13 12.2754C1008.59 11.8242 1009.11 11.4697 1009.7 11.2119C1010.3 10.9482 1010.93 10.8164 1011.61 10.8164H1011.98C1012.92 10.8164 1013.77 10.626 1014.53 10.2451C1014.66 10.1807 1014.8 10.1484 1014.94 10.1484C1015.07 10.1484 1015.19 10.1748 1015.3 10.2275C1015.41 10.2744 1015.51 10.3389 1015.59 10.4209C1015.67 10.5029 1015.73 10.5996 1015.78 10.7109C1015.83 10.8223 1015.86 10.9424 1015.86 11.0713C1015.86 11.2646 1015.8 11.4375 1015.68 11.5898C1015.55 11.7363 1015.39 11.8682 1015.17 11.9854C1014.97 12.1025 1014.73 12.2051 1014.46 12.293C1014.2 12.375 1013.92 12.4424 1013.64 12.4951C1013.35 12.5479 1013.06 12.5889 1012.77 12.6182C1012.49 12.6416 1012.23 12.6533 1011.98 12.6533H1011.61C1010.74 12.6533 1010.02 12.9551 1009.42 13.5586ZM1021.35 23.0859L1018.18 15.4834C1018.13 15.3486 1018.1 15.2109 1018.1 15.0703C1018.1 14.9473 1018.12 14.8301 1018.17 14.7188C1018.21 14.6074 1018.28 14.5107 1018.36 14.4287C1018.44 14.3408 1018.54 14.2734 1018.65 14.2266C1018.76 14.1797 1018.88 14.1562 1019.01 14.1562C1019.19 14.1562 1019.36 14.209 1019.52 14.3145C1019.68 14.4141 1019.8 14.5635 1019.88 14.7627L1022.35 20.6602L1024.82 14.7451C1024.89 14.5693 1024.99 14.4287 1025.12 14.3232C1025.25 14.2119 1025.44 14.1562 1025.68 14.1562C1025.81 14.1562 1025.93 14.1797 1026.04 14.2266C1026.15 14.2734 1026.25 14.3408 1026.33 14.4287C1026.41 14.5107 1026.48 14.6074 1026.53 14.7188C1026.58 14.8301 1026.6 14.9473 1026.6 15.0703C1026.6 15.1992 1026.57 15.3369 1026.51 15.4834L1021.45 27.6035C1021.38 27.7852 1021.26 27.9316 1021.1 28.043C1020.94 28.1602 1020.77 28.2188 1020.58 28.2188C1020.32 28.2188 1020.1 28.1309 1019.92 27.9551C1019.75 27.7793 1019.67 27.5596 1019.67 27.2959C1019.67 27.1553 1019.7 27.0205 1019.76 26.8916L1021.35 23.0859ZM1028.11 15.0703C1028.11 14.9473 1028.13 14.8301 1028.18 14.7188C1028.23 14.6074 1028.29 14.5107 1028.38 14.4287C1028.46 14.3408 1028.55 14.2734 1028.67 14.2266C1028.78 14.1797 1028.9 14.1562 1029.03 14.1562C1029.15 14.1562 1029.27 14.1797 1029.39 14.2266C1029.5 14.2734 1029.59 14.3408 1029.68 14.4287C1029.76 14.5107 1029.82 14.6074 1029.87 14.7188C1029.92 14.8301 1029.94 14.9473 1029.94 15.0703V17.0742C1029.94 17.3555 1029.99 17.625 1030.1 17.8828C1030.21 18.1348 1030.36 18.3545 1030.55 18.542C1030.73 18.7295 1030.95 18.8789 1031.21 18.9902C1031.46 19.1016 1031.74 19.1572 1032.03 19.1572C1032.32 19.1572 1032.59 19.1045 1032.84 18.999C1033.09 18.8877 1033.31 18.7383 1033.5 18.5508C1033.69 18.3633 1033.84 18.1436 1033.95 17.8916C1034.06 17.6396 1034.11 17.3701 1034.11 17.083V15.0703C1034.11 14.9473 1034.14 14.8301 1034.18 14.7188C1034.23 14.6074 1034.3 14.5107 1034.38 14.4287C1034.47 14.3408 1034.57 14.2734 1034.68 14.2266C1034.79 14.1797 1034.91 14.1562 1035.03 14.1562C1035.16 14.1562 1035.28 14.1797 1035.39 14.2266C1035.5 14.2734 1035.6 14.3408 1035.68 14.4287C1035.76 14.5107 1035.83 14.6074 1035.87 14.7188C1035.92 14.8301 1035.95 14.9473 1035.95 15.0703V23.0859C1035.95 23.209 1035.92 23.3262 1035.87 23.4375C1035.83 23.5488 1035.76 23.6484 1035.68 23.7363C1035.6 23.8184 1035.5 23.8828 1035.39 23.9297C1035.28 23.9766 1035.16 24 1035.03 24C1034.91 24 1034.79 23.9766 1034.68 23.9297C1034.57 23.8828 1034.47 23.8184 1034.38 23.7363C1034.3 23.6484 1034.23 23.5488 1034.18 23.4375C1034.14 23.3262 1034.11 23.209 1034.11 23.0859V20.4053C1033.51 20.7979 1032.82 20.9941 1032.03 20.9941C1031.49 20.9941 1030.99 20.8916 1030.51 20.6865C1030.04 20.4756 1029.62 20.1943 1029.26 19.8428C1028.91 19.4854 1028.63 19.0693 1028.42 18.5947C1028.21 18.1201 1028.11 17.6133 1028.11 17.0742V15.0703ZM1045.34 18.1641C1045.24 17.8418 1045.09 17.5488 1044.89 17.2852C1044.7 17.0156 1044.47 16.7871 1044.21 16.5996C1043.95 16.4062 1043.66 16.2568 1043.35 16.1514C1043.04 16.0459 1042.71 15.9932 1042.38 15.9932C1042.05 15.9932 1041.72 16.0459 1041.4 16.1514C1041.09 16.2568 1040.8 16.4062 1040.53 16.5996C1040.27 16.7871 1040.04 17.0156 1039.85 17.2852C1039.66 17.5488 1039.51 17.8418 1039.42 18.1641H1045.34ZM1044.95 21.2314C1045.21 21.2314 1045.43 21.3193 1045.6 21.4951C1045.77 21.665 1045.86 21.8818 1045.86 22.1455C1045.86 22.4033 1045.77 22.623 1045.6 22.8047C1044.69 23.6016 1043.62 24 1042.38 24C1041.02 24 1039.86 23.5195 1038.9 22.5586C1037.94 21.5977 1037.46 20.4375 1037.46 19.0781C1037.46 17.7188 1037.94 16.5586 1038.9 15.5977C1039.86 14.6367 1041.02 14.1562 1042.38 14.1562C1043.73 14.1562 1044.89 14.6367 1045.86 15.5977C1046.34 16.0723 1046.7 16.6025 1046.94 17.1885C1047.18 17.7686 1047.3 18.3984 1047.3 19.0781C1047.3 19.3418 1047.21 19.5615 1047.03 19.7373C1046.85 19.9072 1046.64 19.9922 1046.38 19.9922H1039.42C1039.52 20.3145 1039.66 20.6104 1039.86 20.8799C1040.05 21.1436 1040.28 21.3721 1040.53 21.5654C1040.8 21.7529 1041.09 21.8994 1041.4 22.0049C1041.71 22.1104 1042.04 22.1631 1042.38 22.1631C1042.77 22.1631 1043.12 22.1045 1043.44 21.9873C1043.77 21.8701 1044.06 21.6943 1044.34 21.46C1044.52 21.3135 1044.72 21.2373 1044.95 21.2314ZM1050.7 19.9922V23.0859C1050.7 23.209 1050.68 23.3262 1050.63 23.4375C1050.58 23.5488 1050.51 23.6484 1050.43 23.7363C1050.34 23.8184 1050.25 23.8828 1050.14 23.9297C1050.03 23.9766 1049.91 24 1049.78 24C1049.66 24 1049.54 23.9766 1049.42 23.9297C1049.31 23.8828 1049.21 23.8184 1049.13 23.7363C1049.04 23.6484 1048.98 23.5488 1048.93 23.4375C1048.89 23.3262 1048.86 23.209 1048.86 23.0859V15.0703C1048.86 14.9473 1048.89 14.8301 1048.93 14.7188C1048.98 14.6074 1049.04 14.5107 1049.13 14.4287C1049.21 14.3408 1049.31 14.2734 1049.42 14.2266C1049.54 14.1797 1049.66 14.1562 1049.78 14.1562C1049.91 14.1562 1050.03 14.1797 1050.14 14.2266C1050.25 14.2734 1050.34 14.3408 1050.43 14.4287C1050.51 14.5107 1050.58 14.6074 1050.63 14.7188C1050.68 14.8301 1050.7 14.9473 1050.7 15.0703V18.1641H1055.21V15.0703C1055.21 14.9473 1055.23 14.8301 1055.28 14.7188C1055.32 14.6074 1055.39 14.5107 1055.47 14.4287C1055.55 14.3408 1055.65 14.2734 1055.76 14.2266C1055.87 14.1797 1055.99 14.1562 1056.12 14.1562C1056.25 14.1562 1056.37 14.1797 1056.48 14.2266C1056.59 14.2734 1056.69 14.3408 1056.77 14.4287C1056.85 14.5107 1056.92 14.6074 1056.97 14.7188C1057.01 14.8301 1057.04 14.9473 1057.04 15.0703V23.0859C1057.04 23.209 1057.01 23.3262 1056.97 23.4375C1056.92 23.5488 1056.85 23.6484 1056.77 23.7363C1056.69 23.8184 1056.59 23.8828 1056.48 23.9297C1056.37 23.9766 1056.25 24 1056.12 24C1055.99 24 1055.87 23.9766 1055.76 23.9297C1055.65 23.8828 1055.55 23.8184 1055.47 23.7363C1055.39 23.6484 1055.32 23.5488 1055.28 23.4375C1055.23 23.3262 1055.21 23.209 1055.21 23.0859V19.9922H1050.7ZM1066.8 24C1066.54 24 1066.32 23.9121 1066.15 23.7363C1065.98 23.5605 1065.9 23.3467 1065.89 23.0947C1065.49 23.4111 1065.06 23.6426 1064.61 23.7891C1064.16 23.9297 1063.67 24 1063.14 24C1062.51 24 1061.92 23.8799 1061.36 23.6396C1060.81 23.3936 1060.32 23.0625 1059.91 22.6465C1059.49 22.2305 1059.16 21.7441 1058.91 21.1875C1058.67 20.6309 1058.55 20.0391 1058.55 19.4121V15.0703C1058.55 14.8184 1058.64 14.6045 1058.82 14.4287C1059 14.2471 1059.22 14.1562 1059.47 14.1562C1059.73 14.1562 1059.94 14.2471 1060.12 14.4287C1060.3 14.6045 1060.39 14.8184 1060.39 15.0703V19.4121C1060.39 19.793 1060.46 20.1504 1060.6 20.4844C1060.75 20.8184 1060.94 21.1113 1061.19 21.3633C1061.44 21.6094 1061.73 21.8057 1062.07 21.9521C1062.4 22.0928 1062.76 22.1631 1063.14 22.1631C1063.51 22.1631 1063.87 22.0928 1064.2 21.9521C1064.54 21.8057 1064.83 21.6064 1065.08 21.3545C1065.33 21.1025 1065.53 20.8125 1065.67 20.4844C1065.82 20.1504 1065.89 19.793 1065.89 19.4121V15.0703C1065.89 14.8184 1065.98 14.6045 1066.15 14.4287C1066.34 14.2471 1066.56 14.1562 1066.81 14.1562C1067.07 14.1562 1067.28 14.2471 1067.46 14.4287C1067.64 14.6045 1067.73 14.8184 1067.73 15.0703V23.0859C1067.73 23.3379 1067.64 23.5547 1067.46 23.7363C1067.28 23.9121 1067.06 24 1066.8 24ZM1074.92 18.1641V15.9932H1072.5C1072.35 15.9932 1072.2 16.0254 1072.06 16.0898C1071.93 16.1484 1071.81 16.2305 1071.71 16.3359C1071.62 16.4355 1071.55 16.5498 1071.49 16.6787C1071.44 16.8076 1071.41 16.9395 1071.41 17.0742C1071.41 17.2207 1071.44 17.3613 1071.49 17.4961C1071.55 17.625 1071.63 17.7393 1071.73 17.8389C1071.83 17.9385 1071.94 18.0176 1072.07 18.0762C1072.21 18.1348 1072.35 18.1641 1072.5 18.1641H1074.92ZM1075.84 14.1562C1075.96 14.1562 1076.08 14.1797 1076.2 14.2266C1076.31 14.2734 1076.4 14.3408 1076.49 14.4287C1076.57 14.5107 1076.63 14.6074 1076.68 14.7188C1076.73 14.8301 1076.76 14.9473 1076.76 15.0703V23.0859C1076.76 23.209 1076.73 23.3262 1076.68 23.4375C1076.63 23.5488 1076.57 23.6484 1076.49 23.7363C1076.4 23.8184 1076.31 23.8828 1076.2 23.9297C1076.08 23.9766 1075.96 24 1075.84 24C1075.71 24 1075.6 23.9766 1075.48 23.9297C1075.37 23.8828 1075.27 23.8184 1075.18 23.7363C1075.1 23.6484 1075.04 23.5488 1074.99 23.4375C1074.94 23.3262 1074.92 23.209 1074.92 23.0859V19.9922H1073.17C1072.76 19.9922 1072.43 20.1943 1072.2 20.5986L1070.67 23.4463C1070.47 23.8154 1070.2 24 1069.83 24C1069.7 24 1069.58 23.9766 1069.47 23.9297C1069.36 23.8828 1069.26 23.8184 1069.18 23.7363C1069.1 23.6484 1069.04 23.5488 1068.99 23.4375C1068.94 23.3262 1068.92 23.209 1068.92 23.0859C1068.92 22.9043 1068.96 22.7432 1069.05 22.6025L1070.57 19.7285C1070.62 19.623 1070.68 19.5234 1070.76 19.4297C1070.56 19.2539 1070.39 19.0781 1070.25 18.9023C1070.1 18.7266 1069.98 18.5449 1069.88 18.3574C1069.78 18.1699 1069.71 17.9707 1069.66 17.7598C1069.61 17.5488 1069.59 17.3203 1069.59 17.0742C1069.59 16.6699 1069.66 16.292 1069.81 15.9404C1069.97 15.583 1070.18 15.2725 1070.45 15.0088C1070.71 14.7451 1071.02 14.5371 1071.37 14.3848C1071.73 14.2324 1072.11 14.1562 1072.5 14.1562H1075.84ZM1083.69 14.2002C1083.69 13.6143 1083.8 13.0635 1084.03 12.5479C1084.25 12.0322 1084.56 11.5811 1084.95 11.1943C1085.34 10.8076 1085.79 10.5029 1086.3 10.2803C1086.82 10.0576 1087.37 9.94629 1087.95 9.94629C1088.53 9.94629 1089.07 10.0605 1089.59 10.2891C1090.11 10.5176 1090.56 10.8252 1090.94 11.2119C1091.33 11.5986 1091.63 12.0498 1091.86 12.5654C1092.09 13.0811 1092.2 13.626 1092.2 14.2002C1092.2 14.7861 1092.09 15.3311 1091.88 15.835C1091.66 16.3389 1091.36 16.7959 1090.95 17.2061L1086.68 22.1631H1091.28C1091.54 22.1631 1091.75 22.2539 1091.93 22.4355C1092.11 22.6172 1092.2 22.834 1092.2 23.0859C1092.2 23.3379 1092.11 23.5547 1091.93 23.7363C1091.75 23.9121 1091.54 24 1091.28 24H1084.61C1084.48 24 1084.36 23.9766 1084.25 23.9297C1084.13 23.8828 1084.04 23.8184 1083.96 23.7363C1083.87 23.6484 1083.81 23.5488 1083.76 23.4375C1083.72 23.3262 1083.69 23.209 1083.69 23.0859C1083.69 22.8223 1083.78 22.6055 1083.95 22.4355L1089.64 15.9316C1090.12 15.4512 1090.36 14.874 1090.36 14.2002C1090.36 13.8721 1090.3 13.5615 1090.17 13.2686C1090.04 12.9756 1089.87 12.7207 1089.64 12.5039C1089.43 12.2812 1089.17 12.1055 1088.88 11.9766C1088.58 11.8477 1088.27 11.7832 1087.95 11.7832C1087.61 11.7832 1087.3 11.8477 1087.01 11.9766C1086.71 12.0996 1086.46 12.2695 1086.23 12.4863C1086.02 12.7031 1085.84 12.958 1085.71 13.251C1085.59 13.5439 1085.53 13.8604 1085.53 14.2002C1085.53 14.4521 1085.44 14.6689 1085.26 14.8506C1085.08 15.0264 1084.86 15.1143 1084.61 15.1143C1084.35 15.1143 1084.14 15.0264 1083.96 14.8506C1083.78 14.6689 1083.69 14.4521 1083.69 14.2002ZM1093.72 16.96C1093.72 15.8525 1093.81 14.8652 1094.01 13.998C1094.2 13.125 1094.48 12.3867 1094.84 11.7832C1095.2 11.1797 1095.65 10.7197 1096.19 10.4033C1096.72 10.0811 1097.33 9.91992 1098.01 9.91992C1098.7 9.91992 1099.31 10.084 1099.84 10.4121C1100.38 10.7344 1100.82 11.2002 1101.19 11.8096C1101.56 12.4131 1101.83 13.1514 1102.02 14.0244C1102.22 14.8916 1102.31 15.8701 1102.31 16.96C1102.31 18.0498 1102.22 19.0312 1102.02 19.9043C1101.83 20.7715 1101.56 21.5098 1101.19 22.1191C1100.82 22.7227 1100.38 23.1885 1099.84 23.5166C1099.31 23.8389 1098.7 24 1098.01 24C1097.33 24 1096.72 23.8418 1096.19 23.5254C1095.65 23.2031 1095.2 22.7432 1094.84 22.1455C1094.48 21.542 1094.2 20.8037 1094.01 19.9307C1093.81 19.0576 1093.72 18.0674 1093.72 16.96ZM1098.01 11.7832C1097.6 11.7832 1097.24 11.915 1096.93 12.1787C1096.63 12.4424 1096.37 12.8027 1096.17 13.2598C1095.97 13.7168 1095.82 14.2646 1095.72 14.9033C1095.62 15.5361 1095.57 16.2217 1095.57 16.96C1095.57 17.71 1095.62 18.4043 1095.72 19.043C1095.82 19.6758 1095.97 20.2207 1096.18 20.6777C1096.38 21.1348 1096.64 21.4922 1096.94 21.75C1097.25 22.0078 1097.6 22.1367 1098.01 22.1367C1098.43 22.1367 1098.79 22.0049 1099.1 21.7412C1099.41 21.4775 1099.66 21.1172 1099.86 20.6602C1100.06 20.1973 1100.21 19.6494 1100.31 19.0166C1100.41 18.3838 1100.46 17.6982 1100.46 16.96C1100.46 16.2275 1100.4 15.5449 1100.3 14.9121C1100.2 14.2793 1100.05 13.7314 1099.85 13.2686C1099.65 12.8057 1099.4 12.4424 1099.09 12.1787C1098.78 11.915 1098.42 11.7832 1098.01 11.7832ZM1103.74 14.2002C1103.74 13.6143 1103.85 13.0635 1104.07 12.5479C1104.3 12.0322 1104.61 11.5811 1105 11.1943C1105.38 10.8076 1105.83 10.5029 1106.35 10.2803C1106.87 10.0576 1107.41 9.94629 1107.99 9.94629C1108.57 9.94629 1109.12 10.0605 1109.64 10.2891C1110.15 10.5176 1110.6 10.8252 1110.99 11.2119C1111.38 11.5986 1111.68 12.0498 1111.9 12.5654C1112.13 13.0811 1112.25 13.626 1112.25 14.2002C1112.25 14.7861 1112.14 15.3311 1111.92 15.835C1111.71 16.3389 1111.4 16.7959 1111 17.2061L1106.73 22.1631H1111.32C1111.58 22.1631 1111.8 22.2539 1111.98 22.4355C1112.16 22.6172 1112.25 22.834 1112.25 23.0859C1112.25 23.3379 1112.16 23.5547 1111.98 23.7363C1111.8 23.9121 1111.58 24 1111.32 24H1104.65C1104.53 24 1104.4 23.9766 1104.29 23.9297C1104.18 23.8828 1104.09 23.8184 1104 23.7363C1103.92 23.6484 1103.86 23.5488 1103.81 23.4375C1103.76 23.3262 1103.74 23.209 1103.74 23.0859C1103.74 22.8223 1103.82 22.6055 1103.99 22.4355L1109.69 15.9316C1110.17 15.4512 1110.41 14.874 1110.41 14.2002C1110.41 13.8721 1110.35 13.5615 1110.22 13.2686C1110.09 12.9756 1109.91 12.7207 1109.69 12.5039C1109.47 12.2812 1109.22 12.1055 1108.93 11.9766C1108.63 11.8477 1108.32 11.7832 1107.99 11.7832C1107.66 11.7832 1107.35 11.8477 1107.05 11.9766C1106.76 12.0996 1106.5 12.2695 1106.28 12.4863C1106.06 12.7031 1105.89 12.958 1105.76 13.251C1105.64 13.5439 1105.58 13.8604 1105.58 14.2002C1105.58 14.4521 1105.49 14.6689 1105.3 14.8506C1105.13 15.0264 1104.91 15.1143 1104.65 15.1143C1104.4 15.1143 1104.19 15.0264 1104 14.8506C1103.83 14.6689 1103.74 14.4521 1103.74 14.2002ZM1115.61 23.0859V12.1436C1115.43 12.2021 1115.25 12.2695 1115.06 12.3457C1114.86 12.416 1114.69 12.4512 1114.53 12.4512C1114.26 12.4512 1114.04 12.3662 1113.87 12.1963C1113.7 12.0205 1113.61 11.8008 1113.61 11.5371C1113.61 11.3496 1113.66 11.1826 1113.75 11.0361C1113.85 10.8896 1114 10.7695 1114.2 10.6758L1116.22 10.0078C1116.32 9.9668 1116.43 9.94629 1116.53 9.94629C1116.8 9.94629 1117.01 10.0371 1117.18 10.2188C1117.36 10.3945 1117.45 10.6113 1117.45 10.8691V23.0859C1117.45 23.3379 1117.36 23.5547 1117.17 23.7363C1117 23.9121 1116.78 24 1116.52 24C1116.27 24 1116.05 23.9121 1115.87 23.7363C1115.7 23.5547 1115.61 23.3379 1115.61 23.0859Z" fill="white"/>
<defs>
<linearGradient id="paint0_linear_1_209" x1="7.32719" y1="25.0469" x2="-3.34892" y2="15.7607" gradientUnits="userSpaceOnUse">
<stop stop-color="#00A0FF"/>
<stop offset="0.0066" stop-color="#00A1FF"/>
<stop offset="0.2601" stop-color="#00BEFF"/>
<stop offset="0.5122" stop-color="#00D2FF"/>
<stop offset="0.7604" stop-color="#00DFFF"/>
<stop offset="1" stop-color="#00E3FF"/>
</linearGradient>
<linearGradient id="paint1_linear_1_209" x1="21.8781" y1="13.9299" x2="-0.305984" y2="13.9299" gradientUnits="userSpaceOnUse">
<stop stop-color="#FFE000"/>
<stop offset="0.4087" stop-color="#FFBD00"/>
<stop offset="0.7754" stop-color="#FFA500"/>
<stop offset="1" stop-color="#FF9C00"/>
</linearGradient>
<linearGradient id="paint2_linear_1_209" x1="13.6208" y1="15.4956" x2="-4.41347" y2="-0.190867" gradientUnits="userSpaceOnUse">
<stop stop-color="#FF3A44"/>
<stop offset="1" stop-color="#C31162"/>
</linearGradient>
<linearGradient id="paint3_linear_1_209" x1="-2.45066" y1="21.9335" x2="5.60065" y2="14.9304" gradientUnits="userSpaceOnUse">
<stop stop-color="#32A071"/>
<stop offset="0.0685" stop-color="#2DA771"/>
<stop offset="0.4762" stop-color="#15CF74"/>
<stop offset="0.8009" stop-color="#06E775"/>
<stop offset="1" stop-color="#00F076"/>
</linearGradient>
</defs>
</svg>
